# xmcd CD database file
#
# Track frame offsets:
#	150
#	17166
#	37413
#	61877
#	82115
#	96307
#	111354
#	136784
#	154376
#	171807
#	199746
#
# Disc length: 2978 seconds
#
# Revision: 1
# Processed by: cddbd v1.4PL0 Copyright (c) Steve Scherf et al.
# Submitted via: CDex 1.40Release
#
DISCID=9b0ba00b
DTITLE=The Not Yet Famous Blues Band - Blues and Beyond
DYEAR=1999
DGENRE=Blues
TTITLE0=On My Way
TTITLE1=Knock Me Down
TTITLE2=Since The Day You Were Home
TTITLE3=Feeling Blue
TTITLE4=Healing
TTITLE5=Heart Bound
TTITLE6=As You Drop Dead
TTITLE7=Take Yor Direction
TTITLE8=Trouble More
TTITLE9=You Were So Blind
TTITLE10=I've Said That Before
EXTD=YEAR: 1999 ID3G: 0
EXTT0=
EXTT1=
EXTT2=
EXTT3=
EXTT4=
EXTT5=
EXTT6=
EXTT7=
EXTT8=
EXTT9=
EXTT10=
PLAYORDER=
